<?xml version="1.0" encoding="utf-8"?>
<!-- Generator: Adobe Illustrator 21.1.0, SVG Export Plug-In . SVG Version: 6.00 Build 0)  -->
<svg version="1.1" id="Calque_1" xmlns="http://www.w3.org/2000/svg" xmlns:xlink="http://www.w3.org/1999/xlink" x="0px" y="0px"
	 viewBox="0 0 432 432" style="enable-background:new 0 0 432 432;" xml:space="preserve">
<style type="text/css">
	.st0{fill:#1B1B1B;}
	.st1{fill:#921E23;}
	.st2{fill:#DAB0B3;}
	.st3{fill:#343434;}
	.st4{fill:#C69C6C;}
	.st5{fill:#AD9DAF;}
	.st6{fill:#C7696C;}
	.st7{fill:#A5A56E;}
	.st8{fill:#509B89;}
	.st9{fill:#5A5151;}
	.st10{fill:#7B484D;}
	.st11{fill:#D2A1A6;}
	.st12{fill:#966C71;}
	.st13{fill:#4E4D4D;}
	.st14{fill:#83A67F;}
	.st15{fill:#CFAC75;}
	.st16{fill:#877979;}
	.st17{fill:#BCBCD1;}
	.st18{fill:#B4B1A2;}
	.st19{fill:#D5A7AA;}
	.st20{fill:#D1BC8C;}
	.st21{fill:#88AF8F;}
	.st22{fill:#CCB27F;}
	.st23{fill:#B8CFBC;}
	.st24{fill:#CA8A8C;}
	.st25{fill:#5B6781;}
	.st26{fill:#676767;}
	.st27{fill:#2B3447;}
	.st28{fill:#D1C6E3;}
	.st29{fill:#DDCD72;}
	.st30{fill:#8BA1C9;}
	.st31{fill:#E299C2;}
	.st32{fill:#BC8B59;}
	.st33{fill:#913E41;}
	.st34{fill:#BFABB3;}
	.st35{fill:#AB5D7B;}
	.st36{fill:#5D2A3E;}
	.st37{fill:#A49D78;}
	.st38{fill:#A4787A;}
	.st39{fill:#DEC968;}
	.st40{fill:#D19962;}
	.st41{fill:#AB585E;}
	.st42{fill:#7FAEDD;}
	.st43{fill:#CDCCCC;}
	.st44{fill:#F9B03D;}
	.st45{fill:#778DAE;}
	.st46{fill:#A494A7;}
	.st47{fill:#DDB58F;}
	.st48{fill:#615757;}
	.st49{fill:#B0C0D9;}
	.st50{fill:#A08B99;}
	.st51{fill:#8198AD;}
	.st52{fill:#D5B9A2;}
	.st53{fill:#6D91A9;}
	.st54{fill:#020203;}
	.st55{fill:#9489C1;}
	.st56{fill:#A57C9C;}
	.st57{fill:#824B70;}
	.st58{fill:#917C95;}
	.st59{fill:#A67D52;}
	.st60{fill:#5F7C50;}
	.st61{fill:#413939;}
	.st62{fill:#96AF8F;}
	.st63{fill:#E38CBA;}
	.st64{fill:#5D675F;}
	.st65{fill:#886873;}
	.st66{fill:#B2191D;}
	.st67{fill:#D99B9D;}
	.st68{fill:#8D5859;}
	.st69{fill:#E1AFB1;}
	.st70{fill:#AF8358;}
	.st71{fill:#FBC063;}
	.st72{fill:#A98199;}
	.st73{fill:#55735C;}
	.st74{fill:#C7A866;}
	.st75{fill:#6D8372;}
	.st76{fill:#A57B7C;}
	.st77{fill:#998F8F;}
	.st78{fill:#929D95;}
	.st79{fill:#581111;}
	.st80{fill:#D09D69;}
	.st81{fill:#8D5459;}
	.st82{fill:#C6905C;}
	.st83{fill:#5C7460;}
	.st84{fill:#BA999A;}
	.st85{fill:#B7B6D1;}
	.st86{fill:#539FA3;}
	.st87{fill:#B4B4B4;}
	.st88{fill:#746458;}
	.st89{fill:#CDA780;}
	.st90{fill:#EB5B28;}
	.st91{fill:#E2CE6A;}
	.st92{fill:#B6A9D3;}
	.st93{fill:#4F998B;}
	.st94{fill:#BAACD5;}
	.st95{fill:#60A88D;}
	.st96{fill:#879FAE;}
	.st97{fill:#35444D;}
	.st98{fill:#C18F5C;}
	.st99{fill:#9CA578;}
	.st100{fill:#E8C2C4;}
	.st101{fill:#C1292E;}
	.st102{fill:#AF9BB2;}
	.st103{fill:#617F63;}
	.st104{fill:#B6555C;}
	.st105{fill:#CC9864;}
	.st106{fill:#D3989E;}
	.st107{fill:#78B1B7;}
	.st108{fill:#C091A7;}
</style>
<g>
	<g>
		<path class="st13" d="M70.9,287.5c-0.7-0.3-1.3-0.5-1.9-0.8c-2.9-1.6-4.6-4.1-4.5-7.5c0.1-2.3,1.1-4.1,2.7-5.6
			c1.7-1.5,3.7-2.2,5.9-2.5c1.6-0.2,3.1-0.3,4.7-0.3c9-0.2,18.1-0.3,27.1-0.4c1,0,2,0.1,2.9,0.3c3.6,0.9,6,3.8,6.5,7.5
			c0.4,3-1,6.5-4.4,8.4c-0.7,0.4-1,0.7-1,1.5c-0.1,3-0.4,6,0.3,9c0.6,2.7,1.6,5.1,3,7.5c2,3.3,3.6,6.9,4.6,10.6
			c0.9,3.6,1.4,7.2,1.2,10.9c-0.3,5-1.8,9.5-5.2,13.2c-2,2.2-4.4,3.6-7,4.7c-2.5,1-5.1,1.6-7.9,1.7c-2.6,0.1-5.1,0.2-7.7,0.2
			c-5.7-0.2-11.3-1.3-16.4-4.1c-2.9-1.5-5.3-3.6-7.3-6.1c-1.6-2.1-2.6-4.4-3.1-7c-0.5-2.2-0.9-4.5-0.7-6.8c0.2-4.8,1.4-9.2,4.2-13.2
			c1.1-1.6,2-3.4,2.7-5.3c0.5-1.2,0.8-2.5,0.9-3.8c0.2-3.7,0.3-7.5,0.5-11.2C70.9,288.1,70.9,287.8,70.9,287.5z"/>
		<path class="st77" d="M77.9,254.7c-1.6,0.4-3,0.9-4.5,1.1c-2.4,0.4-4.8,0.3-7.1-0.3c-2.3-0.6-3.9-2.2-5-4.3
			c-0.2-0.3-0.3-0.6,0-0.9c0.3-0.3,0.6-0.3,0.9-0.1c2.5,1.3,5,0.8,7.5,0.1c0.1,0,0.1-0.1,0.2-0.2c-0.1-0.1-0.2-0.2-0.2-0.2
			c-3.7-1.5-6.2-4.1-8.1-7.5c-1.9-3.5-2.7-7.2-2.6-11.2c0-0.7,0.2-1.5,0.3-2.2c0.1-0.3,0.2-0.6,0.4-0.9c0.5-0.7,1.3-0.8,2-0.2
			c0.3,0.3,0.6,0.7,0.8,1c0.6,1,1.2,2.1,1.8,3.1c1.1,1.8,2.4,3.5,3.9,4.9c1.8,1.6,3.8,2.4,6,2.4c-0.2-0.2-0.3-0.3-0.5-0.4
			c-4.3-2.4-6.6-6.2-7.6-10.9c-0.6-2.9-0.6-5.8-0.5-8.8c0-0.6,0.1-1.1,0.8-1.4c0.6-0.3,1.2,0,1.6,0.4c0.9,1,1.7,2,2.4,3
			c1.7,2.4,3.6,4.7,5.8,6.6c1.1,0.9,2.3,1.7,3.5,2.5c0.5,0.3,1.1,0.6,1.8,0.5c0.3-1.1-0.1-1.9-0.9-2.5c-0.8-0.7-1.7-1.3-2.6-2
			c-1.1-0.8-2.3-1.5-3.5-2.4c-0.6-0.4-1.2-0.9-1.7-1.4c-1.8-1.5-2.4-3.5-2.2-5.8c0.3-3.1,1.2-6.1,1.9-9.1c2.3-8.7,5.6-16.9,9.9-24.8
			c0.3-0.5,0.5-1,0.9-1.4c0.6-0.8,1.4-0.7,1.9,0.1c0.3,0.5,0.4,1.1,0.6,1.6c0.7,2,1.3,4.1,2,6.1c0.1,0.3,0.3,0.7,0.6,1
			c0-0.4-0.1-0.9-0.1-1.3c-0.2-2.1-0.4-4.2-0.5-6.3c-0.2-5.4,0.6-10.8,2.5-15.9c1.4-3.7,2.9-7.3,4.3-11c0.1-0.4,0.3-0.7,0.5-1.1
			c0.2-0.4,0.5-0.8,1-0.7c0.6,0.1,0.7,0.5,0.8,1c0.1,0.8,0.2,1.5,0.3,2.3c0.2,1.4,0.4,2.9,0.5,4.3c0.1,0,0.1,0,0.2,0
			c0.1-0.3,0.1-0.6,0.2-0.9c1-5.2,1.9-10.4,3.1-15.6c1.6-6.9,4.9-13.1,9.5-18.5c3.5-4.1,7-8.2,10.9-11.9c4.4-4.2,8.8-8.3,13.2-12.4
			c6-5.6,12.7-10.3,20-14.1c1.4-0.8,2.9-1.5,4.3-2.4c3.8-2.4,6.7-5.7,8.3-10c0.5-1.4,0.9-2.9,1-4.4c0-1-0.2-2.1-0.4-3.1
			c-0.1-0.7-0.4-1.3-0.6-2c-0.1-0.3-0.1-0.5-0.1-0.8c0-0.7,0.5-1,1.1-0.8c0.4,0.1,0.7,0.4,1,0.6c1,0.8,1.7,1.9,2.3,3
			c1.4,2.4,2.1,5.1,2.6,7.8c0.2,1.3,0.3,2.6,0.5,3.9c0.1,1.1-0.3,2-0.9,2.7c-1.1,1.3-2.4,2.5-3.5,3.8c-0.2,0.2-0.5,0.5-0.6,0.8
			c0.3-0.2,0.6-0.3,0.9-0.5c1-0.6,2-1.2,3-1.8c1.3-0.7,2.1-0.4,2.4,1c0.3,1.1,0.4,2.3,0.5,3.5c0.5,5.8-0.5,11.4-2.5,16.8
			c-1.1,3-2.2,6-3.3,9c-0.3,0.8-0.8,1.3-1.5,1.7c-1.9,0.9-3.8,1.8-5.7,2.8c-0.4,0.2-0.9,0.4-1.2,0.7c1.2-0.3,2.4-0.7,3.7-1
			c0.5-0.1,1.1-0.3,1.6-0.4c1.3-0.2,2.1,0.4,2.2,1.7c0.1,1.2,0,2.3-0.4,3.4c-0.7,1.7-1.3,3.5-2.2,5.1c-1.1,2.2-2.4,4.3-3.6,6.4
			c-4.1,7.3-8.1,14.7-11.1,22.6c-1.1,3-2.2,6.1-3.1,9.2c-0.8,2.6-2.2,4.6-4.2,6.3c-2.3,1.9-4.8,3.6-7.4,5.1c-3,1.8-5.9,3.5-8.9,5.2
			c-0.3,0.2-0.7,0.4-0.9,0.8c0.3-0.1,0.6-0.2,0.9-0.3c5.1-1.5,9.8-3.9,14.5-6.4c0.6-0.3,1.1-0.6,1.7-0.9c1.4-0.6,2.4,0.1,2.2,1.6
			c-0.1,1.1-0.3,2.2-0.8,3.1c-1,2.3-2.1,4.5-3.3,6.6c-2.8,5-5.8,10-8.1,15.2c-0.6,1.4-1.3,2.8-1.9,4.2c-1,2.3-2.7,4.1-4.8,5.4
			c-3,1.8-6.3,2.8-9.8,3.4c-1.4,0.2-2.8,0.6-4.2,0.9c-0.4,0.1-0.7,0.3-1.1,0.4c0,0.1,0,0.1,0,0.2c0.3,0.1,0.6,0.2,0.9,0.3
			c2.2,0.6,4.5,0.8,6.8,0.7c1.2,0,2.5-0.2,3.7-0.3c0.5,0,0.9-0.1,1.4,0c0.9,0.1,1.5,0.8,1.2,1.7c-0.2,0.7-0.6,1.4-1,1.9
			c-0.9,1.2-2.1,2.1-3.4,2.8c-1.9,1.1-4,2-6.1,2.6c-2.9,0.8-5.8,1.4-8.7,1.8c-0.2,0-0.3,0.1-0.5,0.2c0.4,0.1,0.7,0.2,1.1,0.2
			c4.9,0.5,9.6-0.1,14.3-1.5c0.4-0.1,0.8-0.3,1.2-0.4c0.3-0.1,0.7-0.1,1-0.1c1.1,0,1.7,0.7,1.6,1.7c0,0.5-0.2,1.1-0.4,1.6
			c-0.7,1.6-1.4,3.2-2.2,4.7c-0.5,0.9-1.2,1.6-2.1,2.2c-2.1,1.4-4.6,2.2-7.1,2.7c-3.2,0.7-6.4,0.3-9.5-0.7c-0.9-0.3-1.9-0.6-3-0.9
			c0.1,0.3,0.2,0.6,0.3,0.8c0.5,0.9,1,1.8,1.6,2.7c1.9,2.6,4.5,3.6,7.7,3.6c0.5,0,1-0.1,1.3,0.5c0.2,0.6-0.2,0.9-0.5,1.3
			c-1.7,1.6-3.6,2-5.9,1.6c-1.7-0.3-3.2-1-4.7-1.9c-0.7-0.4-1.4-0.8-2.2-1.1c0.2,0.3,0.4,0.7,0.7,1c1,1.2,2.1,2.2,3.5,2.9
			c0.8,0.4,1.6,0.9,2.4,1.3c2.9,1.7,4.5,4.3,5.1,7.5c0,0.2,0.1,0.4,0,0.6c-0.1,0.6-0.7,0.8-1.2,0.5c-0.2-0.1-0.3-0.4-0.5-0.6
			c-1.4-2.1-3.4-3.6-5.6-4.8c-0.9-0.5-1.9-0.9-3-1.4c0.1,0.5,0.1,0.9,0.2,1.2c0.2,1.5,0.2,3-0.2,4.4c-0.1,0.4-0.1,1-0.8,1
			c-0.7,0-0.5-0.7-0.6-1.1c-0.2-1.1-0.3-2.1-0.4-3.2c-0.3-2.1-1.2-4-2.4-5.7c-1.1-1.5-1.8-3.2-2.3-4.9c-0.2-0.7-0.3-1.5-0.2-2.2
			c0.7-4.7,1.3-9.5,2.2-14.1c1.9-9.4,4.8-18.4,8.4-27.3c3-7.4,5.9-14.8,8.9-22.1c4-9.5,8.4-18.8,13.7-27.7c1.2-2.1,2.4-4.2,3.5-6.3
			c2.8-5.4,5.8-10.7,8.9-15.9c3.2-5.4,6.1-10.9,8.7-16.5c1.2-2.6,2.4-5.2,3.6-7.7c0.2-0.5,0.4-1,0.6-1.6c0.3-0.8-0.1-1.4-0.9-1.7
			c-0.9-0.3-1.8-0.2-2.6,0.2c-1,0.4-1.9,0.9-2.5,1.7c-1.5,1.7-3,3.4-4.4,5.2c-4.7,6-8.9,12.3-12.7,18.9c-3.5,6.2-7.2,12.3-10.7,18.5
			c-4.8,8.4-9.6,16.8-14.2,25.4c-5.4,10.1-9.9,20.7-13.3,31.7c-2.2,7-4.3,14.1-6,21.3c-1,4.3-1.7,8.7-2.2,13.1
			c-0.3,2.8-0.5,5.6-0.7,8.4c-0.2,2.1-0.7,4.1-2.1,5.7c-0.5,0.6-0.9,1.2-1.4,1.8c-0.9,1.2-1.5,2.4-1.9,3.8c0,0.2-0.1,0.4-0.1,0.5
			c-0.1,0.3-0.3,0.6-0.6,0.5c-0.3-0.1-0.6-0.3-0.7-0.5c-0.4-0.9-0.2-1.8,0-2.6C77.3,256.3,77.6,255.5,77.9,254.7z"/>
		<path class="st77" d="M84,261.4c0-3.8,0.4-7.6,1-11.4c0.4-2.9,0.8-5.8,1.2-8.6c1.8-12.2,4.6-24.1,8.9-35.6
			c5.1-13.8,11-27.2,17.6-40.3c8.1-16,17.5-31.2,27.8-45.8c3-4.3,6-8.5,9-12.8c0.3-0.4,0.6-0.8,0.9-1.2c0.5-0.5,1.2-0.6,1.7-0.2
			c0.5,0.4,0.7,1,0.4,1.7c-0.1,0.2-0.2,0.4-0.3,0.6c-4.5,6.1-8.1,12.7-11.9,19.3c-10.4,18.2-19.9,36.8-28.4,56
			c-4.5,10.2-8.7,20.7-11.9,31.4c-1.6,5.2-3,10.4-4.1,15.7c-0.7,3.4-1.1,6.9-1.4,10.4c-0.4,4.5-0.6,9-0.5,13.4
			c0,0.9,0.1,1.7,0.1,2.6c0.1,0.8-0.3,1.5-1,1.8c-2.1,0.9-3.5,2.6-4.7,4.5c-0.4,0.6-0.7,1.3-1,2c-0.3,0.7-0.7,1.2-1.3,1.6
			c-0.7,0.4-1.4,0.2-1.7-0.5c-0.2-0.4-0.3-1-0.3-1.4C84,263.5,84,262.5,84,261.4z"/>
	</g>
	<g>
		<path class="st78" d="M190.6,252.2c-0.3-0.1-0.6-0.1-0.8-0.1c-3.1-0.1-6.3-0.2-9.4,0.3c-5.5,1-9.6,3.8-12.1,8.8
			c-0.3,0.6-0.5,1.1-0.8,1.7c-0.1,0.3-0.3,0.6-0.5,0.8c-0.3,0.4-0.7,0.7-1.3,0.6c-0.5-0.1-0.7-0.5-0.8-1c-0.2-1-0.1-2,0.1-2.9
			c0.5-1.9,1.4-3.6,2.5-5.1c2.5-3.6,6-5.8,10.1-7.3c2.9-1.1,6-1.6,9-2c1.6-0.2,3.1-0.3,4.8-0.5c0.2-1.1,0.4-2.3,0.6-3.4
			c0.2-1.1,0.5-2.1,0.8-3.2c0.2-0.6,0.5-1.3,0.9-1.8c1.6-2.6,5.3-3.3,7.7-0.1c0.9,1.3,1.2,2.8,1.3,4.4c0,1.1,0,2.2,0,3.3
			c0,0.2,0,0.4,0,0.6c0.2,0,0.3,0.1,0.5,0.1c2.8,0,5.6,0.1,8.5,0c4.8-0.2,9.1-1.8,12.7-5.2c1.4-1.3,2.7-2.9,3-4.9
			c0.1-0.8,0.1-1.7,0.1-2.5c0-0.5,0.1-1.1,0.3-1.6c0.6-1.4,2.1-1.6,3.1-0.4c0.5,0.6,0.7,1.3,0.7,2.1c0.2,3.2-0.5,6.1-2.3,8.8
			c-1.3,2.1-3,3.8-5,5.2c-5,3.6-10.6,5.8-16.7,6.3c-1.5,0.1-3,0.1-4.5,0.1c-0.3,0-0.6,0-1,0c-0.1,0.7-0.2,1.3-0.2,2
			c-0.3,5-0.7,9.9-1,14.9c-0.6,10.4-0.7,20.8-0.4,31.2c0.1,4.6,0.3,9.2,0.7,13.8c0.9,10.8,3.3,21.3,7,31.5c0.4,1,0.9,2,1.4,3
			c0.1,0.3,0.3,0.5,0.6,0.9c0.2-0.5,0.4-0.8,0.6-1.2c1.2-2.9,2-6,2.8-9c1.4-5.2,2.3-10.6,3.2-15.9c0.1-0.9,0.3-1.7,0.5-2.6
			c0.1-0.5,0.1-1-0.1-1.4c-1.2-3.4-1.7-6.9-1.6-10.5c0.1-2.5,0.4-4.9,1-7.3c0-0.2,0.1-0.4,0.1-0.6c-0.2-0.2-0.4-0.4-0.6-0.5
			c-2-1.6-3.7-3.5-4.9-5.7c-3.1-5.3-4.6-11-4.1-17.2c0.3-4.3,1.6-8.3,4.3-11.7c3.2-3.9,7.4-5.8,12.4-6c2.5-0.1,4.8,0.6,7.2,1.3
			c3,1,5.6,2.7,7.9,4.9c4.1,3.9,7,8.5,9,13.8c0.9,2.4,1.6,5,2.3,7.4c0.1,0.2,0.1,0.4,0.2,0.6c3.5-4.7,8.3-20.8,7.5-25.6
			c-1,0.2-2,0.3-3,0.5c-2.3,0.3-4.6,0.3-6.9-0.3c-2.5-0.6-4.6-2-6-4.2c-2.4-3.6-3.1-7.5-1.6-11.6c1.1-3.1,3.2-5.3,6.5-6
			c1.6-0.4,3.2-0.2,4.7,0.5c2.1,1,3.8,2.5,5.3,4.3c2.2,2.9,3.7,6.1,4.3,9.7c0.1,0.3,0.1,0.7,0.2,1c0,0.1,0.1,0.1,0.1,0.2
			c1.4-0.2,2.9-0.4,4.3-0.6c2.9-0.3,5.8-0.6,8.7,0c5.2,1,8.2,4.2,9.3,9.2c0.6,2.5,0.6,5.1,0.3,7.7c-0.7,6.3-2,12.4-3.1,18.6
			c-1.1,6.3-2.2,12.6-3.2,18.9c-0.2,1.2-0.3,2.3-0.4,3.5c-0.1,0.8,0,1.7,0.6,2.5c0.3-0.4,0.5-0.6,0.8-1c1.5-2.3,3-4.6,4-7.2
			c1.5-3.9,3.3-7.7,5.1-11.6c0.3-0.7,0.4-1.4,0.4-2.2c-0.1-2.2-0.3-4.3-0.3-6.5c0-2.8,0.4-5.6,1.4-8.2c0.5-1.3,1.2-2.4,2.2-3.4
			c1.6-1.6,3.8-1.9,5.8-0.8c1.6,0.9,2.4,2.4,2.9,4.1c0.7,2.4,0.9,4.9,1.1,7.4c0.3,3.6,0.6,7.2,1.3,10.8c0.4,2.2,1.2,4.3,2.2,6.3
			c0.5,0.9,1.1,1.7,2,2.3c1,0.6,1.6,0.6,2.5-0.2c0.6-0.5,1.1-1.1,1.6-1.7c1.1-1.6,2.2-3.2,3.1-5c3.4-7,6.1-14.2,8.2-21.7
			c1.2-4.2,2.2-8.4,3.4-12.7c0.1-0.5,0.3-1,0.5-1.5c1-2.1,3.3-2.8,5.2-1.6c0.9,0.5,1.5,1.2,2,2c0.8,1.2,1.3,2.5,1.7,3.9
			c0.8,2.6,1.3,5.3,1.7,8c0.8,5.3,1.3,10.6,1.6,16c0.4,5.4,0.6,10.8,0.4,16.2c-0.3,8.3-1.1,16.5-2.7,24.6
			c-1.1,5.4-2.7,10.6-5.4,15.4c-1.8,3.3-4,6.2-6.8,8.8c-3,2.8-6.6,4.3-10.7,4.8c-4,0.5-7.7-0.3-11.3-2c-5.3-2.6-9.1-6.7-11.4-12.1
			c-0.2-0.5-0.4-0.9-0.6-1.4c0,0,0-0.1-0.1-0.1c-0.1,0-0.2-0.1-0.3-0.1c-4.6,0.2-9.2-0.1-13.8-0.4c-8.5-0.4-16.9,0.5-25.1,2.8
			c-2.6,0.7-5.1,1.6-7.5,2.8c-2.8,1.4-5.2,3.4-7,5.9c-1.2,1.6-1.9,3.4-2.1,5.4c-0.1,0.6-0.2,1.2-0.5,1.7c-0.5,1.1-1.6,1.7-2.6,1.6
			c-1.2-0.1-2.1-0.8-2.3-2c-0.2-0.8-0.2-1.6-0.1-2.4c0.7-4.6,3-8.2,6.5-11.2c2.9-2.5,6.3-4.3,9.9-5.8c4.5-1.8,9.2-2.9,14-3.7
			c7-1.2,14-1.5,21-1.2c2.5,0.1,5,0.1,7.5,0.2c0.2,0,0.4,0,0.7,0c0-0.6-0.1-1.2-0.1-1.8c-0.2-4,0.5-7.8,2.6-11.2
			c1.7-2.8,4.2-4.6,7.4-5c2-0.3,4,0.1,5.7,1.2c3.7,2.4,5.6,5.9,6.1,10.2c0.4,3.3-1.1,6-3.5,8.1c-1.5,1.4-3.3,2.3-5.3,2.9
			c-1.8,0.5-3.6,0.9-5.4,1.3c-0.1,0-0.3,0.1-0.5,0.1c0.1,0.3,0.2,0.5,0.3,0.7c1.1,1.9,2.5,3.4,4.4,4.4c1.6,0.9,3.2,1.7,5,2
			c3.9,0.8,7.3-0.2,10.1-3c3.5-3.5,5.8-7.7,7-12.5c0.9-3.7,1.5-7.5,2.1-11.2c0.9-6,1.2-12,1.4-18.1c0.2-6-0.2-12-0.4-17.9
			c-0.1-2.4-0.2-4.9-0.3-7.3c0-0.3,0-0.6-0.2-1c-0.1,0.3-0.2,0.5-0.3,0.8c-2,5.9-4.2,11.7-6.8,17.4c-1.2,2.4-2.5,4.8-3.9,7.1
			c-0.5,0.9-1.2,1.7-1.9,2.5c-3,3.2-6.6,3.9-10.6,2.5c-3-1.1-5.4-3.1-7.3-5.7c-1.4-1.9-2.5-4.1-3.4-6.3c-0.1-0.2-0.2-0.4-0.3-0.7
			c-0.3,0.9-0.6,1.6-0.9,2.3c-1.5,4.6-3.4,9-5.5,13.3c-1.1,2.2-2.5,4.3-4.1,6.2c-0.6,0.7-1.2,1.3-2,1.8c-1.8,1.3-4,1.2-5.8,0
			c-1.1-0.8-2-1.7-2.7-2.9c-1.1-1.9-1.7-3.9-2-6c-0.4-2.8-0.3-5.6-0.2-8.3c0.3-6.1,1-12.1,2-18.2c1-6.1,2.1-12.1,3.4-18.1
			c0.4-1.9,0.9-3.8,1.4-5.7c0.1-0.6,0.2-1.3,0.2-1.9c0-0.9-0.3-1.4-1.2-1.6c-0.5-0.1-1-0.2-1.6-0.2c-2-0.1-3.9,0.2-5.8,0.7
			c-1.1,0.3-2.2,0.5-3.3,0.8c-0.1,1.2-0.2,2.4-0.3,3.5c-0.6,4.6-1.5,9.1-2.9,13.5c-0.9,2.9-2,5.7-3.2,8.5c-0.9,2-2,3.9-3.3,5.7
			c-0.3,0.4-0.4,0.7-0.3,1.2c0.6,3.6,0.9,7.3,0.8,11c-0.4,7.1-1.7,14.1-5,20.5c-0.8,1.6-1.7,3.1-2.9,4.4c-3.7,4.4-9.1,5.9-14.6,4.2
			c-3.8-1.2-6.7-3.7-8.8-7c-0.2-0.3-0.4-0.6-0.7-1.1c-0.1,0.4-0.2,0.7-0.2,1c-1.2,7.3-2.6,14.6-4.8,21.6c-0.6,1.8-1.2,3.6-2.2,5.2
			c-0.5,0.8-1.1,1.6-1.9,2.3c-1.6,1.5-3.4,1.9-5.4,1.1c-0.9-0.4-1.8-0.9-2.5-1.5c-1-0.9-2-2-2.8-3.1c-2.7-3.6-4.5-7.8-5.9-12
			c-1.8-5.2-3-10.5-3.9-15.9c-0.9-5.3-1.6-10.7-2-16c-0.2-3.1-0.3-6.2-0.5-9.4c-0.1-2.4-0.1-4.8-0.1-7.2c0-0.1,0-0.3-0.1-0.5
			c-4.2,0.7-8.2,1.8-12.3,3c0.1,0.4,0.3,0.7,0.4,1c1.5,3.8,2.5,7.6,2.8,11.7c0.3,5.1-0.4,10-2.2,14.8c-1.3,3.3-2.9,6.5-5,9.3
			c-3.6,4.7-8.4,7.7-14.2,8.8c-2.9,0.5-5.7,0.1-8.5-0.7c-7.1-2.1-12.6-8.2-13.8-15.5c-0.7-3.9,0.2-7.6,2.1-11.1
			c1.6-3,3.8-5.5,6.4-7.8c3.7-3.2,7.9-5.5,12.2-7.6c1.4-0.7,2.8-1.2,4.3-1.8c0.3-0.1,0.5-0.2,0.8-0.4c-0.2-0.3-0.3-0.6-0.5-0.9
			c-2.1-3.5-4.6-6.7-7.1-10c-4.5-5.9-9.1-11.8-13.3-17.9c-2-2.9-3.8-5.9-5.1-9.2c-3.1-8.1-3-16.2,0.6-24.1c1.6-3.4,4-6,7.6-7.3
			c2.7-1,5.4-0.9,8.2,0c6,2,9.3,6.3,10.9,12.1c0.4,1.5,0.7,3,0.6,4.6c0,0.7-0.2,1.5-0.4,2.2c0,0.2-0.1,0.4-0.2,0.6
			c-0.2,0.4-0.5,0.6-1,0.6c-0.4,0-0.7-0.4-0.8-0.9c0-0.3,0-0.6-0.1-0.8c-0.1-3.8-1.4-7.1-3.9-9.9c-2-2.4-4.6-3.6-7.7-3.8
			c-2-0.1-3.5,0.8-4.6,2.3c-1,1.4-1.5,3-1.7,4.7c-0.3,3.6,0.3,7.2,1.8,10.5c1,2.4,2.4,4.6,3.8,6.7c4.4,6.6,9.2,13,14,19.3
			c3.6,4.7,7.1,9.5,10.2,14.5c0.5,0.8,0.9,1.6,1.4,2.4c4.8-1,9.5-2,14.3-3C188.1,276.6,188.9,264.4,190.6,252.2z M162.6,299.9
			c-0.3,0.1-0.4,0.1-0.6,0.2c-1.6,0.7-3.3,1.4-4.9,2.2c-3.9,1.9-7.5,4.2-10.8,7.1c-2.1,1.8-3.9,3.8-5.2,6.1c-1,1.8-1.7,3.8-1.8,5.9
			c-0.1,2.5,0.7,4.7,2,6.8c3.6,5.9,11.6,7.9,17.3,3.4c1.4-1.1,2.6-2.3,3.9-3.6c0.6-0.6,1.1-1.2,1.5-1.9c1.6-3,2.6-6.2,2.5-9.7
			c-0.1-3.7-0.5-7.3-1.6-10.9C164.4,303.6,163.6,301.8,162.6,299.9z M220.1,291.4c0.3-0.4,0.5-0.7,0.7-1.1c0.9-1.3,2-2.3,3.5-2.8
			c2.3-0.8,4.4-0.1,5.5,2.1c0.3,0.6,0.6,1.2,0.8,1.9c0.5,1.8,0.3,3.7,0.1,5.5c-0.1,0.8-0.2,1.6-0.3,2.4c2.5,0.7,4.9,0.7,7.4,0.2
			c3.6-0.8,6.5-2.8,9.2-5.2c0.4-0.4,0.3-0.7,0.2-1.1c-0.9-2.8-1.7-5.7-2.8-8.5c-1.2-3.2-2.7-6.2-4.7-9c-1.7-2.3-3.7-4.4-6-6
			c-2.9-2-6.1-2.9-9.5-2.9c-3.2,0-5.6,1.5-6.9,4.6c-0.6,1.4-1,2.9-1,4.5c-0.2,4.2,0.6,8.2,2,12.1
			C218.5,289.2,219.2,290.3,220.1,291.4z M248.1,297.8c-5.2,5.2-11.3,8.3-18.6,8.6c0,0.7-0.1,1.3-0.1,1.9c-0.2,3.4,0,6.7,0.9,10
			c0.5,2,1.2,4.1,2.3,5.8c2.7,4.2,7,4.1,9.9,1.2c0.5-0.5,0.9-1.1,1.4-1.6c2-2.6,3.1-5.7,3.8-8.9c1.2-5.1,1.3-10.2,0.7-15.4
			C248.3,299,248.2,298.5,248.1,297.8z M291.6,341c0.5,0,0.8,0,1.2,0c1.8-0.2,3.6-0.4,5.3-0.8c1.4-0.2,2.7-0.7,3.9-1.5
			c2-1.2,3-3,2.6-5.3c-0.3-2-1.3-3.8-2.8-5.1c-1.6-1.3-3.4-1.6-5.3-0.8c-1.7,0.7-2.9,2-3.7,3.7c-0.8,1.6-1.2,3.4-1.3,5.2
			C291.3,338,291.3,339.5,291.6,341z M257.4,258.6c-0.2-1-0.4-1.9-0.6-2.8c-0.7-2.5-1.8-4.9-3.9-6.7c-0.6-0.5-1.3-0.9-1.9-1.2
			c-0.7-0.4-1.4-0.2-2.1,0.3c-0.7,0.5-1,1.2-1,2c-0.1,3.4,2.1,6.6,5.4,7.9C254.6,258.6,255.9,258.8,257.4,258.6z"/>
		<g>
			<path class="st77" d="M235.1,213c-0.2,0.5-0.4,0.7-0.5,1c-0.6,1.4-1.4,2.6-2.4,3.7c-2.5,2.7-5.4,3-8.3,0.8
				c-2.5-1.9-3.7-4.6-4.1-7.6c-0.3-2.3-0.3-4.7,0.1-7c0-0.1,0-0.1-0.1-0.3c-0.6,0.5-1.1,1.1-1.6,1.6c-0.4,0.4-1.1,0.7-1.2,1.2
				c-0.2,0.6,0,1.3,0,1.9c0.3,3.6,0,7-1,10.5c-0.5,1.6-1.1,3.2-2,4.7c-1.2,1.7-2.7,3.1-4.8,3.6c-3.1,0.8-5.8-0.1-8-2.3
				c-2-2-3-4.6-3.4-7.4c-0.4-2.6,0-5.1,0.5-7.7c0.1-0.3,0.1-0.7,0.3-1.2c-0.7,0.5-1.2,0.8-1.7,1.2c-0.8,0.6-1.5,1.2-2.2,1.8
				c-0.1,0.9-0.2,1.8-0.2,2.8c-0.3,4.8-0.9,9.6-2.8,14.1c-0.5,1.1-1,2.2-1.7,3.2c-0.9,1.3-2.1,2.1-3.7,2.3c-1.9,0.2-3.5-0.5-4.6-2.1
				c-1.3-2-1.3-4.1-0.6-6.3c0.3-1.1,0.8-2.2,1.5-3.2c1-1.5,2.2-2.9,3.4-4.3c0.3-0.3,0.4-0.6,0.4-1.1c0-2.6-0.1-5.2-0.1-7.8
				c0-0.1,0-0.2-0.2-0.4c-0.1,0.2-0.2,0.5-0.3,0.7c-0.7,1.9-1.5,3.8-2.7,5.5c-0.7,1.1-1.5,2.1-2.5,3c-2.4,2.2-5.7,2.4-8.4,0.5
				c-2.2-1.5-3.3-3.7-3.8-6.3c-0.3-1.4-0.3-2.8,0-4.2c0.1-0.6,0.3-1.2,0.6-1.7c1.2-2.1,3.8-2.3,5.3-0.4c0.5,0.6,0.8,1.4,1,2.2
				c0.4,1.4,0.6,2.9,0.9,4.4c0.2,0.7,0.4,1.5,0.7,2.2c0.3,0.7,0.8,0.9,1.5,0.5c0.6-0.3,1.1-0.7,1.6-1.1c1.6-1.5,2.7-3.3,3.6-5.3
				c1.7-3.8,2.8-7.7,3.5-11.8c0.2-1.3,0.5-2.7,0.7-4c0.3-1.7,2.3-2.8,4-1.3c0.7,0.6,1.2,1.4,1.4,2.3c0.3,1.3,0.7,2.7,0.8,4
				c0.3,3.5,0.4,7,0.6,10.5c0,0.1,0,0.2,0,0.5c0.7-0.3,1-0.9,1.5-1.4c0.5-0.5,1-1,1.4-1.5c-0.3-0.9-0.6-1.8-0.8-2.7
				c-0.6-3.1,0-6,1.8-8.6c2.1-2.9,5.1-4,8.6-3.2c0.8,0.2,1.7,0.7,2.4,1.2c3.1,2.2,4.9,5.2,6.1,8.7c0.3,0.9,0.5,1.8,0.8,2.7
				c0.3-0.3,0.7-0.5,0.9-0.7c1.1-1,2.2-2,3.2-3.1c0.3-0.3,0.4-0.6,0.6-0.9c0.2-0.4,0.4-0.8,0.6-1.2c0.8-1.4,2.5-1.7,3.7-0.6
				c0.6,0.5,1.1,1.2,1.3,1.9c0.2,0.9,0.5,1.7,0.5,2.6c0.1,1.9,0,3.8,0,5.8c-0.1,2-0.1,4.1,0.3,6.1c0.1,0.5,0.3,1.1,0.6,1.6
				c0.4,0.7,0.8,0.8,1.4,0.5c0.6-0.3,1.1-0.7,1.5-1.2c0.7-0.9,1.3-1.8,1.8-2.8c0.8-1.6,1.4-3.2,2-4.8c0.2-0.5,0.2-1,0.3-1.5
				c0.2-2,0.4-3.9,0.7-5.9c0.1-0.6,0.3-1.2,0.5-1.7c0.9-2,3.4-2.3,4.8-0.6c0.6,0.8,0.9,1.7,1,2.7c0.1,1.5,0.2,3,0.1,4.5
				c-0.2,3.7,0,7.3,0.4,10.9c0.3,2.3,0.6,4.7,1,7c0.2,1.2,0.6,2.4,1.3,3.5c0.6,0.9,0.9,0.9,1.8,0.2c0.7-0.6,1.2-1.4,1.6-2.3
				c0.8-1.8,1.3-3.7,1.6-5.6c0.5-2.8,0.7-5.7,0.8-8.5c0.1-1.8,0.1-3.5,0.1-5.3c0-1.2-0.1-2.5-0.2-3.7c-0.4,0-0.7,0-1,0
				c-2.8,0-5.1-1.1-6.8-3.3c-2.5-3.2-3-6.8-1.8-10.6c0.4-1.1,1-2.1,2-2.9c1.2-0.9,2.4-1,3.8-0.5c1.2,0.5,2.2,1.4,2.9,2.5
				c1.7,2.6,2.9,5.5,3.3,8.6c0,0.2,0.1,0.4,0.1,0.7c0.5-0.1,1.1-0.2,1.6-0.3c2.2-0.4,4.4-0.9,6.7-1.3c0.8-0.1,1.6-0.1,2.4,0
				c2.4,0.3,4,1.7,4.9,3.9c0.5,1.3,0.7,2.8,0.7,4.2c0,2.3-0.4,4.6-0.8,6.8c-0.7,4.1-1.5,8.2-2.2,12.3c-0.5,2.8-0.6,5.7-0.4,8.5
				c0.1,1.1,0.4,2.2,0.7,3.3c0.1,0.4,0.4,0.8,0.6,1.2c0.7,0,1-0.4,1.4-0.7c1-0.9,1.8-1.9,2.6-3c1.2-1.8,2.4-3.6,3.5-5.5
				c0.2-0.3,0.4-0.6,0.7-0.9c0.3-0.3,0.7-0.4,1.1-0.1c0.4,0.2,0.5,0.6,0.4,1c-0.1,0.2-0.2,0.5-0.3,0.7c-1.3,2.3-2.5,4.6-3.9,6.9
				c-0.8,1.4-1.9,2.7-2.9,4c-0.4,0.5-0.8,0.9-1.3,1.2c-1.7,1.2-3.5,1.4-5.3,0.4c-1.7-0.9-2.8-2.2-3.7-3.8c-1.1-1.9-1.6-4.1-1.9-6.3
				c-0.3-2.5-0.1-5,0.1-7.5c0.5-6.2,2.1-12.1,4.2-17.9c0.4-1.2,0.8-2.4,1.1-3.6c0.3-1.2,0-1.6-1.3-1.5c-0.5,0-0.9,0.1-1.4,0.3
				c-2.2,0.7-4.4,1.5-6.6,2.3c0,0.3,0,0.6,0,0.8c0.2,5.4,0,10.8-0.9,16.2c-0.3,1.8-0.6,3.7-1,5.5c-0.4,1.8-1.1,3.5-2.1,5
				c-0.4,0.6-0.8,1.2-1.3,1.7c-1.9,1.9-4.4,2.3-6.7,0.8c-1.5-0.9-2.6-2.2-3.6-3.6c-1.4-2.2-2.3-4.7-2.6-7.3c-0.3-2-0.4-3.9-0.6-5.9
				C235.1,213.4,235.1,213.3,235.1,213z M201.2,202.2c0.2,0,0.3,0,0.5,0c1.4-0.1,2.5,0.5,3.1,1.7c0.3,0.6,0.3,1.3,0.5,2
				c0.1,0.3,0.1,0.7,0.1,1c3,1,5.6,0.1,8.2-1.1c0-0.2,0-0.4,0-0.5c-0.5-2.2-1.3-4.3-2.4-6.2c-0.8-1.4-1.8-2.8-3-3.8
				c-1.9-1.7-4.5-1.4-6,0.7C200.7,197.8,200.8,200,201.2,202.2z M205.4,210.9c-0.1,0.2-0.1,0.3-0.1,0.4c0,2.4,0,4.9,0.7,7.3
				c0.2,0.9,0.6,1.7,1,2.5c0.7,1.3,1.9,1.6,3.2,0.8c0.6-0.4,1.1-0.9,1.6-1.4c0.8-1,1.3-2.1,1.6-3.3c0.8-2.8,0.9-5.6,0.7-8.5
				c0-0.1-0.1-0.1-0.1-0.2c-1.4,0.6-2.7,1.3-4.1,1.8C208.5,210.9,206.9,211,205.4,210.9z M245.4,186.1c-1.4,2.1-1.1,4.2-0.2,6.3
				c1,2.2,2.7,3.4,4.8,3.3c-0.1-0.5-0.2-1.1-0.3-1.6c-0.5-2.3-1.2-4.4-2.5-6.3C246.9,187.1,246.4,186.5,245.4,186.1z M186.3,220.4
				c-0.1,0-0.1-0.1-0.2-0.1c-0.1,0.2-0.2,0.3-0.3,0.5c-0.7,1-1.4,2.1-1.9,3.2c-0.4,0.9-0.7,1.9-0.9,2.9c-0.2,1-0.1,2,0.4,3
				c0.6,1,1.7,1.1,2.3,0.1c0.2-0.4,0.4-0.8,0.5-1.2c0.1-0.5,0.2-1.1,0.2-1.6c0-2,0-4.1,0-6.1C186.4,220.8,186.3,220.6,186.3,220.4z"
				/>
			<path class="st77" d="M316,234.7c0.7-0.2,1.1-0.6,1.5-1.1c1.3-1.7,2.1-3.6,2.6-5.6c0.2-1.1,0.1-2.3,0.2-3.4
				c0.1-1.3,0.3-2.6,0.6-3.8c0.1-0.5,0.4-1,0.7-1.4c0.8-1.1,2.3-1.3,3.4-0.5c0.7,0.5,1.1,1.1,1.3,1.9c0.3,1.1,0.5,2.2,0.6,3.4
				c0.2,3.1,0.2,6.2,0.4,9.3c0.1,2.4,0.5,4.8,1.1,7.1c0.3,1,0.7,2,1.1,3c0.1,0.3,0.3,0.6,0.5,0.9c0.4,0.5,0.7,0.5,1.2,0
				c0.8-0.7,1.3-1.6,1.7-2.5c0.9-2.2,1.6-4.4,2.1-6.7c1.2-5.5,1.8-11,1.6-16.6c0-0.2,0-0.4,0-0.6c-0.3-0.1-0.6-0.1-1-0.2
				c-2.6-0.4-4.8-1.5-6.5-3.4c-2.2-2.5-2.8-5.4-1.9-8.6c0.3-0.9,0.8-1.8,1.5-2.4c1.3-1.2,3-1.4,4.6-0.7c1.1,0.5,2.1,1.4,2.8,2.4
				c1.7,2.1,2.5,4.5,3,7c0.2,1.1,0.3,2.1,0.5,3.4c0.6-0.2,1.3-0.4,1.9-0.7c0.2-0.1,0.2-0.4,0.3-0.6c0.2-1.1,0.4-2.2,0.7-3.3
				c0.2-0.7,0.5-1.4,0.9-2c0.3-0.5,0.8-0.9,1.2-1.2c1.1-0.7,2.4-0.4,3.1,0.6c0.4,0.5,0.6,1.1,0.8,1.8c0.2,0.9,0.3,1.9,0.4,2.8
				c0.3,3.1,0.1,6.2,0,9.3c0,1,0,2,0,3.2c0.1-0.3,0.2-0.5,0.2-0.7c0.9-4.3,2.1-8.6,3.9-12.7c0.8-1.8,1.8-3.5,2.8-5.1
				c0.5-0.9,1.3-1.7,2.1-2.4c2.1-1.8,4.7-1.6,6.6,0.5c1.4,1.6,2.1,3.5,2.5,5.5c0.4,2,0.4,3.9,0.4,5.9c-0.1,4.7-0.5,9.5-1.1,14.2
				c-0.5,4.1-0.9,8.2-1.2,12.3c-0.2,1.8-0.2,3.6-0.1,5.4c0,1.5,0.2,3.1,0.7,4.6c0.1,0.4,0.3,0.9,0.6,1.3c0.3,0.6,0.6,0.6,1.1,0.2
				c0.6-0.6,1.2-1.2,1.7-1.8c0.7-0.8,1.2-1.7,1.9-2.5c0.6-0.8,1.2-1,1.7-0.6c0.6,0.3,0.6,1,0.2,1.9c-0.8,1.7-1.8,3.3-3.1,4.7
				c-0.6,0.6-1.2,1.1-1.9,1.5c-1.4,0.9-2.9,0.8-4.2-0.3c-0.9-0.7-1.6-1.6-2.1-2.7c-1-1.8-1.5-3.8-1.9-5.8c-0.6-3.1-0.7-6.3-0.6-9.4
				c0.2-5.9,0.4-11.8,0.5-17.6c0.1-3.7,0.1-7.4,0.2-11.1c0-0.8-0.1-1.6-0.2-2.7c-0.5,0.4-0.7,0.6-1,0.9c-1,1-1.8,2.2-2.4,3.5
				c-1.9,3.7-3.2,7.6-4.1,11.7c-0.9,4.1-1.5,8.2-2.1,12.3c-0.1,0.7-0.2,1.4-0.5,2.1c-0.6,1.8-2.4,2.3-3.9,1.1
				c-0.7-0.5-1.2-1.3-1.5-2.1c-0.9-1.9-1.4-3.8-1.7-5.9c-0.7-3.8-0.7-7.7-0.7-11.6c0-0.8,0-1.7,0-2.6c-0.7,0.2-1.3,0.4-2,0.7
				c0,0.9,0.1,1.8,0,2.8c-0.2,2.5-0.4,4.9-0.8,7.4c-0.5,3.9-1.2,7.8-2.2,11.7c-0.4,1.5-0.9,3-1.5,4.5c-0.4,1.2-1.1,2.2-2.1,3.1
				c-1.4,1.3-3.1,1.6-4.9,0.9c-1.7-0.7-3-1.9-4-3.5c-1.4-2.2-2.2-4.6-2.8-7.2c-0.2-1.2-0.4-2.4-0.6-3.7c0-0.2-0.1-0.3-0.1-0.7
				c-0.2,0.4-0.3,0.5-0.4,0.8c-0.5,1-1,2-1.9,2.9c-1.5,1.5-3.2,1.7-5.1,0.7c-1.5-0.9-2.4-2.2-3.1-3.7c-0.8-1.6-1.1-3.3-1.5-5.1
				c-0.2-0.9-0.3-1.8-0.4-2.8c0-0.2-0.1-0.5-0.2-0.8c-0.5,0.5-0.9,0.9-1.2,1.4c-0.1,0.2-0.1,0.5-0.1,0.8c0.3,2.1,0.4,4.2,0.4,6.3
				c-0.2,4.6-1,9-2.9,13.2c-0.6,1.4-1.4,2.7-2.4,3.8c-1.4,1.6-3.1,2.6-5.2,2.7c-1,0-2-0.1-2.9-0.3c-2.2-0.6-4-1.9-5.3-3.8
				c-1.4-2-2.1-4.2-2.4-6.6c-0.4-3.7-0.1-7.4,1-10.9c0.1-0.2,0.1-0.5,0.2-0.8c-0.1-0.1-0.3-0.1-0.4-0.2c-4.1-3.6-5.8-10.5-3-16.5
				c1.8-3.7,6.4-6.5,11.7-4.3c1.4,0.6,2.6,1.5,3.6,2.5c3.2,3.3,5.7,6.9,6.9,11.4c0,0.1,0.1,0.2,0.1,0.2c1.1-0.5,1.7-1.5,1.8-2.6
				c0-1.7,0.2-3.5,0.7-5.1c0.2-0.7,0.5-1.3,0.9-1.9c1.5-2.3,4.3-2.1,5.5,0.4c0.5,1,0.7,2.1,0.7,3.1c0.1,2.2-0.2,4.4-0.4,6.6
				c-0.3,2.9-0.3,5.8,0.1,8.6C315.2,233.4,315.4,234.1,316,234.7z M295.8,229.8c0.4,0,0.7,0,1,0c2.5-0.2,4.6-1.3,6.4-3
				c0.3-0.3,0.3-0.6,0.2-0.9c-0.2-0.9-0.5-1.9-0.8-2.8c-1.2-3.7-3.1-6.9-5.9-9.7c-0.8-0.8-1.8-1.5-2.9-1.8c-1-0.4-2-0.5-3.1-0.2
				c-2,0.6-3.3,1.9-3.9,3.9c-0.6,2.1-0.5,4.2,0.1,6.3c0.4,1.6,1.1,3.1,2.2,4.4c0.2-0.3,0.4-0.5,0.7-0.7c0.5-0.4,1.1-1,1.7-1.3
				c1.9-0.9,4,0.2,4.4,2.2c0.1,0.5,0.1,1.1,0.1,1.7C296,228.5,295.8,229.1,295.8,229.8z M303.9,229.1c-2.6,2.4-5.5,3.8-9,4.1
				c-0.2,1-0.5,2.1-0.7,3.1c-0.5,2.5-0.8,5-0.7,7.6c0.1,1.5,0.5,2.9,1.5,4.1c1,1.3,2.5,1.5,3.8,0.5c0.3-0.2,0.6-0.5,0.9-0.8
				c0.7-1,1.5-1.9,2-3c2.2-4.6,3-9.5,2.4-14.6C304,229.8,303.9,229.5,303.9,229.1z M336.1,215.4c0.1-0.2,0.1-0.2,0.1-0.2
				c0-0.3-0.1-0.6-0.1-0.9c-0.3-2.2-0.8-4.4-1.9-6.5c-0.4-0.9-1-1.7-1.8-2.3c-1-0.7-1.6-0.6-2,0.6c-0.4,1-0.5,2-0.4,3.1
				c0.5,3,2.3,4.8,5,6C335.4,215.3,335.7,215.3,336.1,215.4z"/>
		</g>
		<g>
			<path class="st13" d="M255.6,122.7c-0.2,0-0.5-0.1-0.7-0.1c-4.4-0.5-7.5-3.7-7.8-8.1c-0.3-3.7,0.9-6.9,4-9.2
				c1.5-1.1,3.2-1.7,5.2-1.4c1.6,0.3,2.9,1.2,3.9,2.5c1.8,2.4,2.6,5.1,2.6,8.1c0,0.3,0,0.7,0,1c0,0.1,0,0.1,0.1,0.3
				c1.1-0.1,2.2-0.3,3.3-0.4c2.2-0.2,4.4-0.5,6.6-0.3c2.9,0.2,5,2.2,5.3,5.2c0.1,1.8-0.2,3.6-0.7,5.3c-1,3.9-2.5,7.6-3.9,11.3
				c-3,7.9-6,15.9-8.9,23.8c-1.2,3.3-2.3,6.8-2.8,10.3c-0.2,1.2-0.3,2.4-0.3,3.6c0.1,1.9,1,2.4,2.6,1.3c1.5-1,2.7-2.3,3.7-3.7
				c2-2.8,3.7-5.7,5.4-8.7c0.7-1.2,1.4-2.5,2.1-3.7c0.3-0.4,0.4-0.9,0.4-1.4c0.1-3.5,0.4-6.9,1.2-10.3c0.3-1.3,0.8-2.5,1.3-3.8
				c0.5-1.1,1.2-2,2.1-2.7c2.4-1.9,5.7-1.3,7.2,1.3c0.8,1.4,1.1,2.9,1.2,4.5c0.2,2.4,0,4.9-0.2,7.3c-0.4,4.3-0.8,8.6-1.1,13
				c-0.2,2.7-0.2,5.4-0.1,8.2c0.1,2.6,0.4,5.2,1.1,7.7c0.2,0.7,0.4,1.4,0.8,2c0.2,0.5,0.6,0.9,0.9,1.2c0.4,0.4,0.9,0.5,1.3,0.2
				c0.6-0.4,1.2-0.7,1.6-1.2c1-1.1,2-2.3,2.8-3.5c2-3,3.5-6.3,5-9.7c0.1-0.2,0.1-0.5,0-0.8c-1.3-3.8-2.2-7.6-2.7-11.6
				c-0.2-1.8-0.4-3.7-0.5-5.5c-0.1-2.1-0.2-4.1-0.1-6.2c0.1-4.2,0.4-8.3,0.8-12.5c0.6-5.8,1.5-11.5,2.5-17.3c0.3-1.8,0.7-3.6,1-5.4
				c0.1-0.3,0.1-0.7,0.2-1c-0.1-0.1-0.3-0.2-0.4-0.2c-4.8-1.6-9.5-3.7-14.1-5.8c-4.9-2.3-9.8-4.7-14.7-6.9c-5.2-2.3-10.5-4.3-16-5.6
				c-5-1.2-10.1-1.7-15.3-1.3c-5.4,0.4-10.5,1.6-15.3,4.3c-5.7,3.2-9.6,7.8-11.7,14c-0.2,0.5-0.3,1-0.5,1.5
				c-0.4,0.9-1.1,1.3-1.9,1.2c-0.8-0.1-1.5-0.8-1.5-1.8c0-1.1,0.2-2.2,0.5-3.3c1.1-4.5,3.5-8.4,6.9-11.6c4.5-4.3,9.8-7,15.7-8.7
				c6.8-1.9,13.8-2.2,20.8-1.2c7.7,1,15,3.4,22.1,6.3c5.2,2.2,10.3,4.6,15.5,6.8c3.3,1.4,6.6,2.9,9.9,4.3c0.4,0.2,0.7,0.3,1.2,0.4
				c0.1-0.4,0.2-0.8,0.3-1.1c0.8-2.9,1.7-5.6,3.6-8c0.6-0.7,1.2-1.4,2-1.9c1.5-1.1,3.3-0.9,4.7,0.3c1,0.9,1.8,2.1,2,3.5
				c0.3,1.5,0.5,3.1,0.6,4.6c0,2-0.2,4-0.2,5.9c0,0.2,0,0.3,0,0.6c0.8,0.2,1.6,0.4,2.4,0.5c5.5,1,11.1,1.7,16.7,1.4
				c4.2-0.2,8.1-1.3,11.6-3.7c0.8-0.5,1.5-1.2,2.2-1.8c0.4-0.3,0.9-0.7,1.4-0.9c0.6-0.2,1.2-0.2,1.7,0.3c0.5,0.5,0.6,1.1,0.3,1.7
				c-0.2,0.5-0.5,1-0.8,1.3c-4.2,3.9-9.1,6.7-14.8,7.7c-4.5,0.8-9,0.9-13.6,0.6c-2.5-0.2-4.9-0.4-7.4-0.6c-0.2,0-0.4,0-0.6,0
				c-0.1,0.6-0.2,1.3-0.3,1.9c-0.7,4.7-1.5,9.4-2.2,14.1c-0.6,4-1.1,8-1.6,12.1c-0.4,3.2-0.7,6.4-1,9.6c-0.4,4.2-0.6,8.5-0.4,12.7
				c0.1,2.1,0.3,4.2,0.9,6.2c0.3,1.2,0.8,2.4,1.7,3.4c0.6,0.7,1,0.7,1.8,0.4c0.9-0.4,1.6-1.1,2.2-1.9c0.2-0.2,0.4-0.5,0.5-0.8
				c2.5-4.2,4.7-8.5,6.1-13.2c0.1-0.2,0.1-0.6,0-0.8c-1.4-4.6-1.6-9.2-1.2-14c0.3-3.8,1.3-7.3,3-10.6c1.2-2.2,2.6-4.3,4.5-6
				c1.7-1.6,3.7-2.8,6.1-3.2c5-0.8,9.4,2.7,9.7,7.8c0.5,6.9-3,12.3-9.2,15.4c-1.5,0.7-3.1,1.3-4.7,1.9c0,1.2,0.1,2.4,0.4,3.7
				c0.4,2.3,0.9,4.6,2.1,6.7c0.5,0.9,1.1,1.8,1.9,2.5c1,1.1,2.3,1.3,3.7,0.8c0.8-0.3,1.5-0.6,2.2-1c2.1-1.2,3.9-2.7,5.5-4.5
				c2.5-2.8,5.1-5.7,7.6-8.5c0.3-0.4,0.7-0.7,1-1.1c0.6-0.5,1.3-0.4,1.8,0c0.4,0.4,0.5,1.1,0.1,1.7c-0.5,0.7-1,1.3-1.5,2
				c-2.2,3.2-4.5,6.3-7.1,9.2c-1.8,2.1-3.8,4-6,5.7c-4.5,3.6-10.5,3.3-14.9-0.8c-1.3-1.2-2.3-2.5-3.2-4.2c-0.1,0.3-0.2,0.5-0.3,0.7
				c-1,3.2-1.9,6.4-3,9.6c-0.4,1.3-1,2.6-1.6,3.8c-0.7,1.5-1.7,2.7-2.9,3.9c-2.4,2.4-5.4,2.8-8.4,1.2c-1.9-1-3.4-2.5-4.6-4.2
				c-0.4-0.6-0.7-1.1-1.2-1.8c-0.2,0.4-0.3,0.7-0.4,1c-1.1,2.8-2.2,5.6-3.3,8.4c-0.8,2-1.8,3.8-3.1,5.5c-0.8,1-1.6,1.9-2.6,2.6
				c-1.9,1.2-3.8,1.5-5.9,0.7c-1.7-0.6-3.1-1.6-4.4-2.8c-2.4-2.4-4.1-5.2-5.1-8.4c-1.1-3.6-1.9-7.3-2.1-11.1
				c-0.1-1.6-0.1-3.2-0.1-4.7c0-0.3,0-0.6-0.2-0.9c-0.1,0.2-0.3,0.5-0.4,0.8c-1.7,3-3.3,6-5,9c-0.9,1.6-2.1,3.1-3.3,4.4
				c-1,1-2,1.9-3.3,2.5c-2.9,1.5-5.6,0.6-7.4-1.3c-1.8-1.8-2.8-4.1-3.4-6.6c-0.8-3.4-0.7-6.7-0.1-10.1c1.3-7.7,3.8-15.1,6.7-22.3
				c2.1-5.3,4.2-10.6,7-15.6c0.6-1,1.2-2,1.7-3.1c0.2-0.5,0.4-1,0.5-1.5c0.1-0.7-0.2-1.1-0.8-1.3c-0.6-0.2-1.4-0.3-2-0.2
				c-1.3,0.2-2.5,0.5-3.7,0.8c-0.6,0.1-0.9,0.5-1.2,1c-1.7,3-4.3,5.2-7.5,6.5c-2.2,0.9-4.4,1-6.7,0.6c-0.8-0.1-1.7-0.3-2.6-0.5
				c-0.1,0.9-0.2,1.8-0.3,2.7c-0.9,10.9-3.2,21.4-6.9,31.7c-1.3,3.6-2.8,7.2-4.7,10.6c-1,1.9-2.2,3.7-3.5,5.4c-0.9,1.2-2,2.2-3.2,3
				c-3.2,2.1-6.8,2.1-10-0.1c-1.1-0.7-1.9-1.6-2.7-2.7c-2-2.6-3.1-5.6-3.6-8.9c-0.4-3.1-0.4-6.3-0.1-9.5c0-0.4,0.1-0.8,0.1-1.4
				c-0.3,0.3-0.4,0.4-0.5,0.5c-0.7,0.9-1.3,1.9-2.1,2.8c-0.7,0.9-1.6,1.7-2.6,2.3c-2.1,1.3-4.4,1.2-6.3-0.3
				c-2.1-1.7-3.3-3.9-3.8-6.5c-0.2-1.3-0.3-2.7-0.4-4.3c-0.2,0.5-0.4,0.8-0.5,1.1c-3.5,7.9-7.3,15.6-11.3,23.2
				c-2.1,4-4.4,7.9-6.7,11.8c-1.6,2.6-3.4,5.1-5.5,7.4c-1.1,1.2-2.4,2.3-3.8,3.2c-1.2,0.8-2.5,1.3-3.9,1.6c-3.1,0.6-5.6-0.3-7.7-2.6
				c-1.4-1.5-2.2-3.3-2.7-5.2c-1.1-4.3-0.5-8.5,1.3-12.5c0.4-0.8,1-1.6,1.5-2.3c0.6-0.7,1.3-0.8,1.9-0.5c0.6,0.3,1,1,0.9,1.8
				c-0.1,0.8-0.3,1.6-0.6,2.3c-0.6,2.1-1.2,4.1-1.3,6.3c-0.1,2.2,0.3,4.3,1.5,6.2c1.3,2.2,3.5,2.8,5.8,1.8c1.5-0.6,2.8-1.5,4-2.6
				c2.3-2,4.3-4.3,6-6.9c2.9-4.4,5.3-9,7.5-13.7c4.4-9.2,9.1-18.2,13.8-27.2c0.4-0.8,0.7-1.7,1-2.5c0.9-2.8,1.7-5.6,2.6-8.3
				c0.5-1.6,1.3-3,2.2-4.4c0.7-1,1.5-1.7,2.6-2.1c1.8-0.6,3.5,0,4.4,1.7c0.6,1.2,0.8,2.5,0.7,3.8c-0.2,2.6-1,5.2-1.5,7.7
				c-0.8,3.9-1.6,7.9-2.4,11.8c-0.2,1.1-0.3,2.3-0.4,3.4c0,0.5,0,1.1,0.1,1.6c0.2,1,0.5,1.1,1.3,0.7c0.6-0.3,1.2-0.6,1.6-1.1
				c1-1.1,2-2.4,2.9-3.6c0.2-0.3,0.2-0.7,0.3-1.1c0.5-3.4,1.2-6.7,2.6-9.8c0.7-1.5,1.6-2.7,2.9-3.7c1.3-0.9,2.7-1.3,4.3-1
				c1.3,0.2,2.3,0.9,3,2c0.8,1.1,1.1,2.4,1.3,3.7c0.3,2.6,0.3,5.2,0.1,7.8c-0.3,4.9-0.8,9.8-1.1,14.6c-0.1,1.3,0.1,2.6,0.3,3.9
				c0.1,0.5,0.3,1,0.6,1.5c0.6,0.9,1.5,1.1,2.3,0.4c0.7-0.6,1.3-1.2,1.9-1.9c1.5-1.8,2.6-3.8,3.6-5.9c2.9-6.2,4.9-12.6,6.5-19.2
				c1-4.4,1.7-8.9,2.4-13.4c0.4-2.3,0.8-4.6,1.3-6.8c0.3-1.7,1.2-2.2,2.9-1.8c0.7,0.2,1.3,0.4,2,0.6c1.9,0.6,3.8,0.5,5.7-0.3
				c1.4-0.6,2.7-1.4,3.9-2.4c0.2-0.2,0.5-0.3,0.7-0.5C255.7,122.8,255.6,122.8,255.6,122.7z M330.9,146.3c2.8-0.4,5.9-2.3,8-4.6
				c1.3-1.4,2.1-3.1,2.4-4.9c0.3-1.8-0.1-3.5-1.1-5c-0.5-0.7-1.2-1-2.1-0.9c-1.2,0.1-2.2,0.6-3,1.5c-1.2,1.3-2.1,2.8-2.6,4.4
				c-0.8,2.2-1.1,4.5-1.3,6.8C331,144.5,330.9,145.4,330.9,146.3z M259.4,115.9c0-0.9,0-1.7,0-2.6c0-0.6,0-1.1-0.1-1.7
				c-0.2-1.1-0.8-2.1-1.7-2.7c-0.7-0.4-1.4-0.9-2.2-0.5c-0.8,0.4-1.1,1.3-1.1,2.1C254.2,113.1,256.2,115.9,259.4,115.9z"/>
			<path class="st13" d="M285.2,137.6c-2.6,0.2-4.8-1.4-5.6-4c-0.9-2.9,0.6-6.2,3.3-7.6c2.6-1.3,5.8-0.3,7.4,2.3
				c1.2,2,1.3,4.2,0.4,6.3c-0.8,1.9-2.5,2.7-4.5,3C285.9,137.6,285.5,137.6,285.2,137.6z"/>
		</g>
	</g>
</g>
</svg>
